<svg width="28" height="28" viewBox="0 0 28 28" fill="none" xmlns="http://www.w3.org/2000/svg">
<path d="M19.25 7.09334C19.25 7.09334 11.27 9.08834 15.0967 13.4867C16.2283 14.7817 14.805 15.9483 14.805 15.9483C14.805 15.9483 17.6633 14.49 16.3333 12.6233C15.0967 10.9083 14.1633 10.0567 19.25 7.09334ZM14.035 8.49334C18.76 4.76001 16.3333 2.33334 16.3333 2.33334C17.3133 6.18334 12.88 7.35001 11.2817 9.75334C10.185 11.3867 11.8183 13.1483 14 15.1667C13.1717 13.1833 10.2433 11.48 14.035 8.49334ZM10.9317 20.3817C7.33832 21.385 13.125 23.45 17.6867 21.5017C17.2433 21.3267 16.8117 21.1167 16.4033 20.8717C14.8167 21.2333 13.1833 21.3033 11.5733 21.0817C10.045 20.895 10.9317 20.3817 10.9317 20.3817ZM17.1383 18.4217C15.0967 18.865 12.985 18.97 10.9083 18.725C9.37999 18.5733 10.3833 17.8267 10.3833 17.8267C6.41666 19.145 12.5767 20.6267 18.0833 19.0167C17.745 18.8883 17.4183 18.6667 17.1383 18.4217ZM21.1283 22.2717C21.1283 22.2717 21.7933 22.82 20.4167 23.24C17.7567 24.0333 9.41499 24.2783 7.10499 23.275C6.27666 22.9133 7.83999 22.4117 8.32999 22.3067C8.59832 22.2367 8.86666 22.2133 9.13499 22.2133C8.21332 21.5833 3.14999 23.4967 6.57999 24.0333C15.8783 25.55 23.5433 23.3333 21.1283 22.2717ZM17.9317 16.6017C18.27 16.38 18.6317 16.1933 19.005 16.03C19.005 16.03 17.2433 16.3333 15.4817 16.4967C13.615 16.6833 11.7367 16.7067 9.86999 16.5667C7.12832 16.205 11.375 15.1667 11.375 15.1667C10.0917 15.1667 8.83166 15.47 7.68832 16.0417C5.29666 17.2083 13.6383 17.7333 17.9317 16.6017ZM18.9817 19.425C18.9583 19.4717 18.935 19.5067 18.8883 19.5417C24.7333 18.0133 22.5867 14.1283 19.7867 15.0967C19.635 15.1667 19.5067 15.26 19.425 15.3883C19.5883 15.33 19.7517 15.2833 19.9267 15.2483C21.3267 14.9683 23.3333 17.15 18.9817 19.425ZM19.1333 24.8033C15.6217 25.41 12.0283 25.4567 8.49332 24.9667C8.49332 24.9667 9.02999 25.41 11.7717 25.585C15.9717 25.8533 22.4233 25.4333 22.575 23.45C22.61 23.4617 22.3067 24.2083 19.1333 24.8033Z" fill="#7A620C"/>
</svg>
