<svg width="28" height="14" viewBox="0 0 28 14" fill="none" xmlns="http://www.w3.org/2000/svg">
<path d="M10.22 14L6.78 8.74H6.68L3.24 14H0.3L5.1 6.82L0.64 0.0199988H3.56L6.68 4.74H6.78L9.9 0.0199988H12.82L8.36 6.82L13.16 14H10.22ZM20.197 0.0199988C22.7037 0.0199988 24.6304 0.633332 25.977 1.86C27.3237 3.07333 27.997 4.76667 27.997 6.94C27.997 9.11333 27.3437 10.8333 26.037 12.1C24.7304 13.3667 22.7304 14 20.037 14H15.397V0.0199988H20.197ZM25.617 7C25.617 3.8 23.7837 2.2 20.117 2.2H17.757V11.78H20.377C22.0704 11.78 23.3637 11.38 24.257 10.58C25.1637 9.76667 25.617 8.57333 25.617 7Z" fill="#7A620C"/>
</svg>
