<svg width="24" height="24" viewBox="0 0 24 24" fill="none" xmlns="http://www.w3.org/2000/svg">
<path d="M16.4062 5.67601C16.2892 5.67601 16.2112 5.69176 16.1325 5.71126V5.72326H16.1445C16.1992 5.82451 16.2892 5.90326 16.359 5.99701C16.4137 6.10276 16.4602 6.21151 16.5112 6.31726L16.527 6.30151C16.6207 6.23476 16.668 6.12976 16.668 5.96926C16.629 5.92201 16.6207 5.87176 16.5862 5.82826C16.5472 5.76151 16.461 5.72701 16.4062 5.67601ZM5.76973 18.8708H4.84423C4.81621 17.3976 4.72638 15.9263 4.57498 14.4608H4.56748L3.15748 18.8708H2.45023L1.05148 14.4608H1.03948C0.930782 15.9285 0.865753 17.3992 0.844482 18.8708H0.000732422C0.0464195 17.0214 0.183336 15.1754 0.410982 13.3395H1.55923L2.89498 17.4023H2.90248L4.25023 13.3395H5.34373C5.58598 15.3555 5.73073 17.199 5.77348 18.8708H5.76973ZM9.78523 14.7893C9.41023 16.836 8.90998 18.3248 8.29723 19.2503C7.81273 19.965 7.28548 20.3243 6.71098 20.3243C6.55873 20.3243 6.37123 20.277 6.14473 20.1833V19.6913C6.25798 19.707 6.38698 19.7183 6.53173 19.7183C6.80098 19.7183 7.01623 19.6403 7.18048 19.4955C7.37548 19.3155 7.47373 19.113 7.47373 18.8903C7.47373 18.7343 7.39948 18.4215 7.24348 17.9453L6.23173 14.7893H7.14223L7.86898 17.1488C8.03323 17.688 8.10373 18.0593 8.07223 18.2738C8.47423 17.211 8.75173 16.047 8.90848 14.7893H9.78523ZM22.113 18.8708H19.4805V13.3395H20.367V18.1913H22.113V18.8708ZM18.7927 19.0043L17.7772 18.504C17.8672 18.4298 17.9527 18.348 18.0315 18.2543C18.465 17.7503 18.6802 16.9965 18.6802 16.0043C18.6802 14.172 17.9617 13.2585 16.524 13.2585C15.8205 13.2585 15.27 13.4888 14.8755 13.9538C14.4457 14.4615 14.2267 15.2115 14.2267 16.2C14.2267 17.1728 14.418 17.8838 14.8012 18.3405C15.153 18.747 15.6802 18.954 16.3875 18.954C16.6492 18.954 16.8915 18.9225 17.1105 18.8565L18.435 19.6298L18.798 19.005L18.7927 19.0043ZM15.5002 17.7615C15.2737 17.4023 15.1642 16.824 15.1642 16.0268C15.1642 14.6325 15.5865 13.9373 16.434 13.9373C16.8757 13.9373 17.2035 14.1053 17.4105 14.4375C17.6332 14.8005 17.7465 15.3713 17.7465 16.1603C17.7465 17.5628 17.3205 18.27 16.4767 18.27C16.0312 18.27 15.7072 18.102 15.4965 17.7698L15.5002 17.7615ZM13.8435 17.34C13.8435 17.8088 13.6717 18.1958 13.3237 18.492C12.9802 18.7928 12.5227 18.945 11.9407 18.945C11.3977 18.945 10.878 18.7733 10.3665 18.429L10.605 17.9528C11.0422 18.1718 11.4367 18.2813 11.7967 18.2813C12.129 18.2813 12.3907 18.207 12.5782 18.0623C12.7657 17.9138 12.879 17.7068 12.879 17.445C12.879 17.1165 12.6487 16.8353 12.2302 16.6013C11.8432 16.3868 11.0662 15.945 11.0662 15.945C10.644 15.6368 10.437 15.3083 10.437 14.7653C10.437 14.316 10.593 13.9568 10.9057 13.683C11.2222 13.4018 11.6242 13.2653 12.1245 13.2653C12.6222 13.2609 13.1101 13.4037 13.527 13.6755L13.3125 14.1518C12.9774 14.0042 12.6159 13.9259 12.2497 13.9215C11.9647 13.9215 11.7457 13.992 11.5935 14.1285C11.4412 14.265 11.3475 14.4368 11.3475 14.652C11.3475 14.9805 11.5822 15.2618 12.0112 15.5033C12.4057 15.7178 13.1985 16.1715 13.1985 16.1715C13.632 16.476 13.8472 16.8045 13.8472 17.3393L13.8435 17.34ZM23.223 11.4848C22.6875 11.4728 22.2735 11.5275 21.9262 11.676C21.8287 11.715 21.6682 11.715 21.6525 11.8403C21.7072 11.895 21.7147 11.9813 21.762 12.0548C21.8437 12.1875 21.981 12.3675 22.11 12.4613C22.251 12.5708 22.3912 12.6803 22.536 12.774C22.7977 12.9345 23.091 13.0283 23.3482 13.188C23.493 13.2818 23.6415 13.4025 23.7855 13.5008C23.8597 13.5518 23.9062 13.6418 24 13.6725V13.653C23.9527 13.5945 23.9415 13.5083 23.8942 13.4385C23.8275 13.3718 23.7615 13.3133 23.6947 13.2473C23.4991 12.9876 23.2646 12.7596 22.9995 12.5715C22.785 12.4268 22.3162 12.2235 22.23 11.9775L22.218 11.9618C22.3627 11.9498 22.5345 11.895 22.6747 11.856C22.9012 11.7975 23.112 11.8088 23.3467 11.7503C23.4544 11.7223 23.5612 11.6911 23.667 11.6565V11.598C23.5462 11.4773 23.4562 11.313 23.331 11.1998C22.9858 10.8978 22.6175 10.6234 22.2292 10.3793C22.0185 10.2428 21.753 10.1565 21.5302 10.0433C21.4522 10.0043 21.3157 9.98476 21.2722 9.91801C21.1515 9.76951 21.081 9.57826 20.9947 9.40201C20.7985 9.02071 20.6162 8.63246 20.448 8.23801C20.3272 7.97626 20.2567 7.71826 20.1082 7.47601C19.4205 6.33901 18.6705 5.65201 17.5222 4.97626C17.2762 4.83526 16.9792 4.77676 16.6665 4.70251C16.4985 4.69501 16.3342 4.68301 16.1662 4.67551C16.0567 4.62826 15.9517 4.50376 15.858 4.44076C15.4755 4.19851 14.4907 3.67876 14.2132 4.36651C14.0332 4.80376 14.4787 5.22976 14.6355 5.44876C14.7487 5.60476 14.8935 5.77726 14.9752 5.94901C15.0225 6.06601 15.0337 6.18751 15.081 6.30826C15.1867 6.60151 15.288 6.92926 15.429 7.20301C15.5032 7.34401 15.5812 7.49176 15.675 7.61701C15.7297 7.69126 15.8235 7.72276 15.843 7.84351C15.7492 7.98001 15.7417 8.17951 15.6907 8.34376C15.4485 9.10126 15.5422 10.035 15.882 10.5938C15.9915 10.7618 16.245 11.1293 16.5855 10.9883C16.8862 10.8675 16.8202 10.488 16.9057 10.152C16.9252 10.0703 16.9132 10.0193 16.953 9.96451V9.98026C17.0505 10.1678 17.1442 10.3478 17.2305 10.5353C17.4337 10.8638 17.7967 11.2035 18.0975 11.43C18.258 11.5508 18.3825 11.7585 18.582 11.832V11.8125H18.5662C18.5235 11.754 18.4687 11.7263 18.414 11.6798C18.2873 11.5543 18.1698 11.42 18.0622 11.2778C17.7847 10.9028 17.535 10.4888 17.316 10.0628C17.2105 9.85228 17.1141 9.63733 17.0272 9.41851C16.9882 9.34051 16.9882 9.21901 16.9215 9.18001C16.8202 9.32476 16.6717 9.44926 16.6012 9.63301C16.4722 9.91801 16.4602 10.2735 16.41 10.641C16.3867 10.6485 16.398 10.641 16.3867 10.6568C16.1722 10.602 16.098 10.383 16.0192 10.1955C15.816 9.71926 15.7845 8.95726 15.957 8.41051C16.0042 8.26951 16.203 7.82851 16.125 7.69576C16.0822 7.56676 15.9495 7.49251 15.879 7.39126C15.789 7.26601 15.699 7.10626 15.6367 6.96526C15.4762 6.59026 15.3982 6.17626 15.2227 5.80126C15.1447 5.62951 15.0037 5.44951 14.8905 5.28976C14.7615 5.10976 14.6212 4.98151 14.523 4.77001C14.4877 4.69576 14.4412 4.57501 14.496 4.49626C14.508 4.44151 14.535 4.42201 14.5897 4.40626C14.676 4.33201 14.9257 4.42576 15.012 4.46851C15.258 4.56601 15.465 4.65976 15.672 4.80076C15.7657 4.86751 15.867 4.99201 15.9885 5.02726H16.1295C16.344 5.07451 16.5825 5.03926 16.782 5.10151C17.1375 5.21476 17.4577 5.37901 17.7465 5.55826C18.6295 6.12511 19.3476 6.91461 19.8285 7.84726C19.9102 7.99951 19.9455 8.14051 20.0197 8.30026C20.1562 8.63251 20.3325 8.96401 20.4727 9.28051C20.613 9.59701 20.7465 9.91726 20.949 10.179C21.0502 10.32 21.4492 10.3935 21.6322 10.464C21.765 10.5263 21.972 10.581 22.089 10.6515C22.3192 10.7925 22.5457 10.9523 22.761 11.1083C22.8705 11.1825 23.2027 11.3505 23.2222 11.4833L23.223 11.4848Z" fill="#7A620C"/>
</svg>
