<svg width="24" height="24" viewBox="0 0 24 24" fill="none" xmlns="http://www.w3.org/2000/svg">
<g clip-path="url(#clip0)">
<path d="M3.89103 15.672L6.25428 0.461248C6.33228 -0.054752 7.02753 -0.171752 7.26978 0.289498L9.81303 5.05875L3.89103 15.672ZM20.6835 19.3635L18.4335 5.36325C18.4165 5.26542 18.373 5.17413 18.3077 5.09928C18.2424 5.02444 18.1579 4.96889 18.0633 4.93867C17.9687 4.90845 17.8677 4.90472 17.7711 4.92787C17.6745 4.95102 17.5861 5.00017 17.5155 5.07L3.31653 19.3627L11.172 23.7922C11.664 24.0697 12.2655 24.0697 12.7583 23.7922L20.6835 19.3635ZM14.301 7.14825L12.4808 3.66375C12.4347 3.57628 12.3656 3.50306 12.2809 3.45198C12.1963 3.4009 12.0993 3.37391 12.0004 3.37391C11.9015 3.37391 11.8045 3.4009 11.7199 3.45198C11.6352 3.50306 11.5661 3.57628 11.52 3.66375L3.53178 17.9842L14.301 7.14825Z" fill="#7A620C"/>
</g>
<defs>
<clipPath id="clip0">
<rect width="24" height="24" fill="white"/>
</clipPath>
</defs>
</svg>
