<svg width="24" height="24" viewBox="0 0 24 24" fill="none" xmlns="http://www.w3.org/2000/svg">
<g clip-path="url(#clip0)">
<path d="M16.2131 11.4029L17.7351 12.9249L15.8385 14.8215C15.698 14.962 15.698 15.1024 15.8385 15.2429L16.2365 15.641C16.377 15.7815 16.5175 15.7815 16.658 15.641L18.5546 13.7444L21.4814 16.6712L19.5848 18.5678C19.4443 18.7083 19.4443 18.841 19.5848 18.9659L19.9829 19.3873C20.1234 19.5278 20.2638 19.5278 20.4043 19.3873L22.3009 17.4907L23.776 18.9659C23.9165 19.1063 23.9868 19.278 23.9868 19.481C23.9868 19.6839 23.9165 19.8634 23.776 20.0195L20.0297 23.7659C19.8736 23.9063 19.6941 23.9766 19.4912 23.9766C19.2882 23.9766 19.1165 23.9063 18.976 23.7659L11.4131 16.2029L7.01113 20.6049C6.76137 20.8546 6.45698 20.9795 6.09795 20.9795C5.73893 20.9795 5.43454 20.8546 5.18478 20.6049L3.40526 18.802C3.15551 18.5522 3.03063 18.2517 3.03063 17.9005C3.03063 17.5493 3.15551 17.2488 3.40526 16.999L7.80722 12.5971L0.220864 5.01073C0.0803759 4.87024 0.0101318 4.69854 0.0101318 4.49561C0.0101318 4.29268 0.0803759 4.12098 0.220864 3.98049L3.96722 0.210732C4.12331 0.0702439 4.30283 0 4.50575 0C4.70868 0 4.88039 0.0702439 5.02088 0.210732L6.496 1.68585L4.59941 3.58244C4.45892 3.72293 4.45892 3.86341 4.59941 4.0039L4.99746 4.40195C5.13795 4.54244 5.27844 4.54244 5.41893 4.40195L7.31552 2.50537L10.2424 5.4322L8.34576 7.32878C8.20527 7.46927 8.20527 7.60976 8.34576 7.75024L8.74381 8.14829C8.8843 8.28878 9.02479 8.28878 9.16528 8.14829L11.0619 6.25171L12.5838 7.79707L20.0063 0.374634C20.256 0.124878 20.5565 0 20.9077 0C21.259 0 21.5595 0.124878 21.8092 0.374634L23.6121 2.17756C23.8619 2.42732 23.9868 2.7278 23.9868 3.07902C23.9868 3.43024 23.8619 3.73073 23.6121 3.98049L16.2131 11.4029ZM1.5555 18.919C1.58672 19.0439 1.64136 19.1454 1.7194 19.2234L4.76331 22.2673C4.84136 22.3454 4.94283 22.4 5.06771 22.4312C4.98966 22.5873 4.92722 22.681 4.88039 22.7122L0.759402 23.9766C0.384767 23.9766 0.16623 23.9454 0.103791 23.8829C0.0413514 23.8205 0.0101318 23.602 0.0101318 23.2273L1.27453 19.1063C1.30574 19.0751 1.3994 19.0127 1.5555 18.919Z" fill="#7A620C"/>
</g>
<defs>
<clipPath id="clip0">
<rect width="24" height="23.9766" fill="white"/>
</clipPath>
</defs>
</svg>
