<svg width="25" height="16" viewBox="0 0 25 16" fill="none" xmlns="http://www.w3.org/2000/svg">
<path d="M5.74 1.02C7.86 1.02 9.40667 1.42667 10.38 2.24C11.3533 3.05333 11.84 4.30667 11.84 6C11.84 7.69333 11.34 8.93333 10.34 9.72C9.35333 10.5067 7.83333 10.9 5.78 10.9H3.3V15H0.94V1.02H5.74ZM6.04 8.76C7.34667 8.76 8.23333 8.51333 8.7 8.02C9.18 7.51333 9.42 6.78 9.42 5.82C9.42 4.84667 9.12 4.16 8.52 3.76C7.92 3.36 6.98 3.16 5.7 3.16H3.3V8.76H6.04ZM18.8319 2.86C18.1519 2.86 17.5919 3 17.1519 3.28C16.7119 3.56 16.4919 3.98667 16.4919 4.56C16.4919 5.12 16.7119 5.55333 17.1519 5.86C17.5919 6.15333 18.5252 6.47333 19.9519 6.82C21.3919 7.16667 22.4719 7.65333 23.1919 8.28C23.9252 8.90667 24.2919 9.83333 24.2919 11.06C24.2919 12.2733 23.8319 13.26 22.9119 14.02C21.9919 14.78 20.7852 15.16 19.2919 15.16C17.1052 15.16 15.1652 14.4067 13.4719 12.9L14.9519 11.12C16.3652 12.3467 17.8319 12.96 19.3519 12.96C20.1119 12.96 20.7119 12.8 21.1519 12.48C21.6052 12.1467 21.8319 11.7133 21.8319 11.18C21.8319 10.6333 21.6185 10.2133 21.1919 9.92C20.7785 9.61333 20.0585 9.34 19.0319 9.1C18.0052 8.84667 17.2252 8.62 16.6919 8.42C16.1585 8.20667 15.6852 7.93333 15.2719 7.6C14.4452 6.97333 14.0319 6.01333 14.0319 4.72C14.0319 3.42667 14.4985 2.43333 15.4319 1.74C16.3785 1.03333 17.5452 0.68 18.9319 0.68C19.8252 0.68 20.7119 0.826666 21.5919 1.12C22.4719 1.41333 23.2319 1.82667 23.8719 2.36L22.6119 4.14C22.1985 3.76667 21.6385 3.46 20.9319 3.22C20.2252 2.98 19.5252 2.86 18.8319 2.86Z" fill="#7A620C"/>
</svg>
