<svg width="24" height="25" viewBox="0 0 24 25" fill="none" xmlns="http://www.w3.org/2000/svg">
<path fill-rule="evenodd" clip-rule="evenodd" d="M4.75835 11.0264L3.95047 11.8364L4.75836 12.6464H2.80789C2.58701 12.6464 2.38682 12.5575 2.24098 12.4135L2.23664 12.4092C2.22234 12.3948 2.20869 12.3801 2.19568 12.365C2.14586 12.307 2.10408 12.2419 2.07209 12.1714C1.98003 11.968 1.97615 11.7344 2.06045 11.5284C2.18134 11.2338 2.47046 11.0264 2.80789 11.0264H4.75835ZM2.06045 11.5284C2.09988 11.4321 2.15861 11.3419 2.23664 11.2636L9.1307 4.35165C9.44621 4.03536 9.95773 4.03536 10.2732 4.35165C10.5887 4.66798 10.5887 5.18083 10.2732 5.49716L4.75835 11.0264H21.1921C21.6383 11.0264 22 11.3891 22 11.8364C22 12.2838 21.6383 12.6464 21.1921 12.6464H4.75836L10.2733 18.1756C10.5888 18.492 10.5888 19.0048 10.2733 19.3211C10.1155 19.4793 9.90875 19.5584 9.70199 19.5584C9.49523 19.5584 9.28844 19.4793 9.1307 19.3211L2.24098 12.4135C2.22523 12.398 2.21012 12.3818 2.19568 12.365C2.14441 12.3054 2.10321 12.2401 2.07209 12.1714C2.02579 12.0693 2 11.9559 2 11.8364C2 11.7274 2.02149 11.6234 2.06045 11.5284Z" fill="#212122"/>
<mask id="mask0" mask-type="alpha" maskUnits="userSpaceOnUse" x="2" y="4" width="20" height="16">
<path fill-rule="evenodd" clip-rule="evenodd" d="M4.75835 11.0264L3.95047 11.8364L4.75836 12.6464H2.80789C2.58701 12.6464 2.38682 12.5575 2.24098 12.4135L2.23664 12.4092C2.22234 12.3948 2.20869 12.3801 2.19568 12.365C2.14586 12.307 2.10408 12.2419 2.07209 12.1714C1.98003 11.968 1.97615 11.7344 2.06045 11.5284C2.18134 11.2338 2.47046 11.0264 2.80789 11.0264H4.75835ZM2.06045 11.5284C2.09988 11.4321 2.15861 11.3419 2.23664 11.2636L9.1307 4.35165C9.44621 4.03536 9.95773 4.03536 10.2732 4.35165C10.5887 4.66798 10.5887 5.18083 10.2732 5.49716L4.75835 11.0264H21.1921C21.6383 11.0264 22 11.3891 22 11.8364C22 12.2838 21.6383 12.6464 21.1921 12.6464H4.75836L10.2733 18.1756C10.5888 18.492 10.5888 19.0048 10.2733 19.3211C10.1155 19.4793 9.90875 19.5584 9.70199 19.5584C9.49523 19.5584 9.28844 19.4793 9.1307 19.3211L2.24098 12.4135C2.22523 12.398 2.21012 12.3818 2.19568 12.365C2.14441 12.3054 2.10321 12.2401 2.07209 12.1714C2.02579 12.0693 2 11.9559 2 11.8364C2 11.7274 2.02149 11.6234 2.06045 11.5284Z" fill="white"/>
</mask>
<g mask="url(#mask0)">
</g>
</svg>
