<svg width="21" height="18" viewBox="0 0 21 18" fill="none" xmlns="http://www.w3.org/2000/svg">
<path d="M3 10.18V12.99C3 13.72 3.4 14.4 4.04 14.75L9.04 17.48C9.64 17.81 10.36 17.81 10.96 17.48L15.96 14.75C16.6 14.4 17 13.72 17 12.99V10.18L10.96 13.48C10.36 13.81 9.64 13.81 9.04 13.48L3 10.18ZM9.04 0.519999L0.609999 5.12C-0.0800012 5.5 -0.0800012 6.5 0.609999 6.88L9.04 11.48C9.64 11.81 10.36 11.81 10.96 11.48L19 7.09V13C19 13.55 19.45 14 20 14C20.55 14 21 13.55 21 13V6.59C21 6.22 20.8 5.89 20.48 5.71L10.96 0.519999C10.6645 0.362424 10.3348 0.279999 10 0.279999C9.66515 0.279999 9.33545 0.362424 9.04 0.519999Z" fill="#F6C71F"/>
</svg>
