<svg width="34" height="39" viewBox="0 0 34 39" fill="none" xmlns="http://www.w3.org/2000/svg">
<g filter="url(#filter0_d)">
<path d="M34 5.57144V9.05356C34 12.1222 26.3854 14.625 17 14.625C7.61456 14.625 0 12.1222 0 9.05356V5.57144C0 2.50278 7.61456 0 17 0C26.3854 0 34 2.50278 34 5.57144ZM34 13.4062V21.2411C34 24.3097 26.3854 26.8125 17 26.8125C7.61456 26.8125 0 24.3097 0 21.2411V13.4062C3.65234 15.9308 10.3372 17.1061 17 17.1061C23.6628 17.1061 30.3476 15.9308 34 13.4062ZM34 25.5938V33.4286C34 36.4972 26.3854 39 17 39C7.61456 39 0 36.4972 0 33.4286V25.5938C3.65234 28.1183 10.3372 29.2936 17 29.2936C23.6628 29.2936 30.3476 28.1183 34 25.5938Z" fill="#2ACAAD"/>
</g>
<defs>
<filter id="filter0_d" x="-4" y="0" width="42" height="47" filterUnits="userSpaceOnUse" color-interpolation-filters="sRGB">
<feFlood flood-opacity="0" result="BackgroundImageFix"/>
<feColorMatrix in="SourceAlpha" type="matrix" values="0 0 0 0 0 0 0 0 0 0 0 0 0 0 0 0 0 0 127 0"/>
<feOffset dy="4"/>
<feGaussianBlur stdDeviation="2"/>
<feColorMatrix type="matrix" values="0 0 0 0 0 0 0 0 0 0 0 0 0 0 0 0 0 0 0.25 0"/>
<feBlend mode="normal" in2="BackgroundImageFix" result="effect1_dropShadow"/>
<feBlend mode="normal" in="SourceGraphic" in2="effect1_dropShadow" result="shape"/>
</filter>
</defs>
</svg>
