<svg width="39" height="39" viewBox="0 0 39 39" fill="none" xmlns="http://www.w3.org/2000/svg">
<path d="M11.9844 27.2691L14.0156 24.7309L7.47662 19.5L14.0156 14.2691L11.9844 11.7309L3.85937 18.2309C3.669 18.3831 3.51531 18.5762 3.40969 18.7959C3.30408 19.0156 3.24924 19.2562 3.24924 19.5C3.24924 19.7437 3.30408 19.9844 3.40969 20.2041C3.51531 20.4238 3.669 20.6169 3.85937 20.7691L11.9844 27.2691ZM27.0156 11.7309L24.9844 14.2691L31.5234 19.5L24.9844 24.7309L27.0156 27.2691L35.1406 20.7691C35.331 20.6169 35.4847 20.4238 35.5903 20.2041C35.6959 19.9844 35.7508 19.7437 35.7508 19.5C35.7508 19.2562 35.6959 19.0156 35.5903 18.7959C35.4847 18.5762 35.331 18.3831 35.1406 18.2309L27.0156 11.7309Z" fill="#DF3059"/>
<path d="M24.336 5.226L17.836 34.476L14.6624 33.7708L21.1624 4.52075L24.336 5.226Z" fill="#DF3059"/>
</svg>
