<svg width="18" height="18" viewBox="0 0 18 18" fill="none" xmlns="http://www.w3.org/2000/svg">
<path d="M8.92151 9.04652C7.68314 9.04652 6.62791 8.61047 5.75581 7.73838C4.88372 6.86629 4.44767 5.81106 4.44767 4.57268C4.44767 3.33431 4.88372 2.27908 5.75581 1.40699C6.62791 0.534893 7.68314 0.0988464 8.92151 0.0988464C10.1599 0.0988464 11.2151 0.534893 12.0872 1.40699C12.9593 2.27908 13.3953 3.33431 13.3953 4.57268C13.3953 5.81106 12.9593 6.86629 12.0872 7.73838C11.2151 8.61047 10.1599 9.04652 8.92151 9.04652ZM8.92151 11.2965C10.0203 11.2965 11.2326 11.4535 12.5581 11.7675C13.8837 12.0814 15.0959 12.5959 16.1948 13.3111C17.2936 14.0262 17.843 14.8372 17.843 15.7442V17.9942H0V15.7442C0 14.8372 0.549419 14.0262 1.64826 13.3111C2.74709 12.5959 3.9593 12.0814 5.28488 11.7675C6.61047 11.4535 7.82267 11.2965 8.92151 11.2965Z" fill="#F6C71F"/>
</svg>
