<svg width="18" height="18" viewBox="0 0 18 18" fill="none" xmlns="http://www.w3.org/2000/svg">
<path d="M5.09723 11.7623C5.21135 11.7637 5.27885 11.637 5.31161 11.5276C5.43275 11.1231 5.44211 10.6859 5.33861 10.2766L5.17103 10.2861C5.23025 10.5368 5.04863 10.8184 4.79573 10.8679C4.75945 11.1108 4.7944 11.3591 4.89635 11.5826C4.93595 11.6689 5.00219 11.7612 5.09723 11.7623Z" fill="#F6C71F"/>
<path d="M13.448 10.7174C13.2962 10.6808 13.3034 10.46 13.2104 10.3347C13.0666 10.141 12.7624 10.242 12.5519 10.3597C12.2279 10.5408 11.891 10.7087 11.576 10.9053C11.2052 11.1366 11.1685 11.5952 11.1103 11.984C11.0813 12.1781 10.9778 12.3392 11.155 12.4621C11.4899 12.6947 11.9617 12.1446 12.2994 12.0945C12.7489 12.0279 12.7753 12.6617 13.0504 12.8991C13.1117 12.9513 13.1837 12.9896 13.2613 13.0113C13.3389 13.033 13.4203 13.0376 13.4998 13.0248C13.5792 13.0108 13.6545 12.9798 13.7207 12.9338C13.7869 12.8879 13.8424 12.8282 13.8832 12.7587C13.9473 12.5071 14.0567 12.3489 14.2051 12.1349C14.3123 11.9801 14.4248 11.8047 14.3964 11.6186C14.3714 11.455 14.2443 11.3297 14.1471 11.1956C14.0315 11.0338 13.9537 10.8481 13.9193 10.6522C13.8849 10.4562 13.8949 10.2551 13.9486 10.0636C13.7956 10.0627 13.7358 10.2582 13.7128 10.4096C13.6895 10.5608 13.5968 10.7532 13.448 10.7174Z" fill="#F6C71F"/>
<path d="M9.45522 8.44128L9.43074 8.51976C9.57474 8.58276 9.65556 8.73306 9.7344 8.86896C9.81288 9.00414 9.89964 9.135 10.0037 9.25164C10.1225 9.38419 10.2615 9.49718 10.4155 9.58644C10.6879 9.74448 10.9967 9.82566 11.3015 9.90504C11.5117 9.95976 11.7241 10.0148 11.9412 10.0229C12.1583 10.031 12.3838 9.9882 12.5609 9.86238C12.1068 9.83862 11.6435 9.85464 11.207 9.72666C10.8129 9.61027 10.461 9.38212 10.1939 9.06984C10.0865 8.94366 9.99378 8.8047 9.8784 8.68536C9.7632 8.56602 9.61938 8.46504 9.45522 8.44128Z" fill="#F6C71F"/>
<path d="M11.3702 9.4167C11.4088 9.41904 11.4491 9.4185 11.4833 9.40086C11.5646 9.35892 11.5731 9.24894 11.5832 9.15804C11.5997 9.00793 11.6489 8.86326 11.7272 8.73414C11.7648 8.67222 11.8093 8.61336 11.833 8.54496C11.8568 8.47656 11.8555 8.39358 11.8075 8.3394C11.7524 8.27712 11.6536 8.27298 11.5763 8.30394C11.4991 8.33472 11.4368 8.39322 11.3715 8.44434C11.2682 8.52516 11.1526 8.59068 11.0565 8.68014C10.9604 8.76942 10.883 8.89092 10.8869 9.02214C10.8904 9.13626 10.9571 9.243 11.0493 9.31068C11.1413 9.37818 11.2561 9.40968 11.3702 9.4167Z" fill="#F6C71F"/>
<path d="M12.9373 9.0808C12.9098 9.20266 13.0149 9.31534 13.1251 9.37438C13.2352 9.4336 13.3632 9.46924 13.4465 9.5623C13.5122 9.63574 13.5403 9.73438 13.5886 9.82024C13.6366 9.9061 13.7225 9.98656 13.8202 9.97396C13.9088 9.96262 13.9775 9.87784 14.0666 9.8764C14.1651 9.87478 14.2319 9.97072 14.2931 10.0481C14.3541 10.1253 14.4632 10.1975 14.5435 10.1403C14.6077 10.0946 14.6009 9.99052 14.5507 9.92986C14.5004 9.8692 14.422 9.84094 14.3474 9.81538C14.3408 9.78531 14.3421 9.75401 14.3513 9.72461C14.3605 9.69521 14.3772 9.66873 14.3998 9.6478L13.736 9.25486C13.6456 9.2014 13.5383 9.14632 13.441 9.1852C13.3686 9.21418 13.3103 9.29248 13.2332 9.2806C13.1692 9.2707 13.1339 9.20356 13.0979 9.14956C13.0619 9.09556 12.9913 9.04498 12.9373 9.0808Z" fill="#F6C71F"/>
<path d="M13.0358 4.8283C12.9893 4.7158 12.9017 4.60006 12.9436 4.48594C12.9523 4.46236 12.9665 4.4395 12.9645 4.41448C12.9609 4.37128 12.9139 4.34842 12.8763 4.327C12.7211 4.2388 12.6477 4.0597 12.5593 3.90472C12.4709 3.74974 12.325 3.59332 12.1475 3.61258L12.3631 3.89338C12.5172 4.09408 12.6743 4.30054 12.7472 4.54264C12.8201 4.78492 12.7921 5.07418 12.6117 5.25166C12.5575 5.30494 12.4924 5.34598 12.4355 5.39638C12.3786 5.44678 12.3282 5.51104 12.3185 5.58646C12.3088 5.66188 12.3521 5.74774 12.4265 5.76394C12.4751 5.77456 12.5249 5.75512 12.5698 5.73334C12.7381 5.65162 12.8912 5.52976 12.9852 5.36776C13.0792 5.20576 13.1072 5.00128 13.0358 4.8283Z" fill="#F6C71F"/>
<path d="M13.0142 13.2764C12.9982 13.2989 12.9951 13.3279 12.9926 13.3554L12.965 13.6559C13.0082 13.678 13.0563 13.6379 13.0867 13.6001C13.1741 13.4915 13.2468 13.3718 13.3029 13.2442C13.2556 13.2624 13.203 13.2473 13.1531 13.2395C13.1035 13.2316 13.0435 13.2352 13.0142 13.2764Z" fill="#F6C71F"/>
<path d="M8.99999 0.469421C4.29443 0.469421 0.479874 4.28398 0.479874 8.98954C0.479874 13.6951 4.29443 17.5097 8.99999 17.5097C13.7056 17.5097 17.5201 13.6951 17.5201 8.98954C17.5201 4.28398 13.7056 0.469421 8.99999 0.469421ZM11.8134 1.71646C11.644 1.78972 11.4763 1.87684 11.3108 1.94812C10.6981 2.212 10.0181 2.2624 9.35261 2.30938L8.31005 2.383C8.30429 2.49136 8.21087 2.5882 8.10287 2.59792C7.99487 2.60782 7.88561 2.52934 7.86041 2.42386C7.52777 2.66704 7.08101 2.74606 6.68501 2.63212C6.68555 2.48398 6.89435 2.38768 7.00739 2.48362C7.06877 2.28148 6.90029 2.06746 6.69959 2.00122C6.49889 1.93498 6.28055 1.97566 6.07337 2.01688C5.83379 2.06458 5.58881 2.11426 5.37857 2.23864C5.16833 2.3632 4.99571 2.57902 4.99049 2.82328L6.31151 2.25196L5.61221 2.8717C5.47091 2.9968 5.30927 3.12982 5.12063 3.12172C4.93199 3.11362 4.76657 2.86684 4.89869 2.73202C4.64759 2.90986 4.33205 2.9401 4.02353 2.98852C5.37479 1.8655 7.10981 1.18942 8.99999 1.18942C9.99179 1.18942 10.94 1.37734 11.8134 1.71646ZM3.18635 3.79636C3.38813 3.78268 3.59675 3.86494 3.72725 4.02046C3.88475 4.20802 3.91985 4.48954 3.81329 4.71022L4.22999 4.6681L4.27841 4.89004L4.68125 4.91596C4.66325 5.19478 4.47029 5.45452 4.20857 5.55262C3.94685 5.65054 3.63077 5.58124 3.43403 5.38288C3.29435 5.46118 3.13541 5.28478 3.12695 5.12476C3.11849 4.96474 3.18491 4.80382 3.15269 4.64686C3.11507 4.46434 2.94731 4.34752 2.76101 4.31332C2.8954 4.13505 3.03731 3.96257 3.18635 3.79636ZM10.5509 16.6343C10.5797 16.5593 10.5892 16.4788 10.5691 16.3998C10.7027 16.4181 10.8387 16.4077 10.968 16.3693C11.0974 16.3309 11.217 16.2653 11.3189 16.1769C11.4313 15.9032 11.2734 15.5784 11.0338 15.4049C10.7942 15.2314 10.4924 15.1733 10.2015 15.1196C9.56195 15.0017 8.91377 15.0735 8.27405 15.1486C7.74593 15.2105 7.14923 15.3246 6.77627 15.7399C6.62129 15.9123 6.52049 16.1426 6.49241 16.3737C3.41819 15.3268 1.19987 12.4133 1.19987 8.98954C1.19987 8.6182 1.22777 8.25334 1.27817 7.8955C1.37285 8.02222 1.51541 8.11402 1.67147 8.1097L2.15261 10.1219C2.35205 10.9559 2.56211 11.8136 3.06539 12.5078C3.17141 12.6542 3.30101 12.7991 3.47579 12.8451C3.76001 12.92 4.05143 12.6938 4.16321 12.4218C4.27499 12.1498 4.25663 11.8451 4.25591 11.5509C4.25481 10.2302 4.63841 8.93772 5.35985 7.83142C5.07131 7.93348 4.69295 8.01196 4.50701 7.76896C4.42367 7.66006 4.40837 7.51534 4.39613 7.3789L4.26869 5.96122C4.50971 6.50945 4.65188 7.09598 4.68863 7.69372C5.14804 7.62761 5.58103 7.43854 5.94179 7.14652C6.04583 7.0621 6.15041 6.9541 6.15347 6.82018C6.16211 6.44974 5.48405 6.43354 5.40629 6.0712C5.41961 6.13366 6.53453 6.4753 6.67187 6.55558C7.05095 6.77716 7.16435 7.24696 7.35263 7.63108C7.42085 7.77022 7.43795 7.93438 7.52489 8.06326C7.58771 8.15614 7.69643 8.22688 7.80749 8.21176C8.05265 8.17828 8.21627 7.57582 8.32247 7.37314C8.52947 6.97768 8.76455 6.72604 9.07685 7.1287C9.34181 7.47052 9.70307 7.86346 9.88217 8.2582C10.024 8.57068 10.0679 8.98504 10.5372 8.96668C10.5876 8.9647 10.2537 8.46178 10.2265 8.42776C10.0654 8.22634 9.97379 8.02618 9.86597 7.78174C10.0022 7.9558 10.1972 8.09728 10.4177 8.11438C10.638 8.1313 10.8765 7.99342 10.9231 7.77742C10.9697 7.56142 10.7584 7.31716 10.5446 7.37314C10.4895 7.2502 10.5946 7.10764 10.7192 7.05634C10.8437 7.00522 10.9838 7.01152 11.1154 6.98308C11.5907 6.88012 11.8528 6.2413 11.5866 5.83414C11.4498 5.62498 11.2019 5.37262 11.3625 5.1811C11.4568 5.0686 11.648 5.0884 11.7562 5.18758C11.8643 5.28676 11.9066 5.43814 11.9286 5.5834L12.0647 5.55136C12.19 4.9453 12.3007 4.28164 12.0123 3.7339C11.9309 3.57928 11.8181 3.39568 11.9086 3.24628C11.9603 3.16114 12.0622 3.12298 12.1379 3.05836C12.2137 2.99374 12.2566 2.86018 12.1752 2.80276L12.4324 2.81428C12.4132 3.238 12.7337 3.65182 13.1488 3.73948C12.9484 3.21733 12.7986 2.67713 12.7015 2.12632C15.1398 3.44662 16.7998 6.02818 16.7998 8.99026C16.8001 12.7596 14.1115 15.9131 10.5509 16.6343Z" fill="#F6C71F"/>
<path d="M15.1936 13.295L13.8123 14.4347C14.4428 14.3734 15.0138 13.9023 15.1936 13.295Z" fill="#F6C71F"/>
</svg>
