<svg width="16" height="17" viewBox="0 0 16 17" fill="none" xmlns="http://www.w3.org/2000/svg">
<g clip-path="url(#clip0)">
<path d="M14 1.22821H2L1 6.24122V10.7529H15V6.24122L14 1.22821ZM13.625 6.24122H10C10 6.77303 9.78929 7.28306 9.41421 7.65911C9.03914 8.03516 8.53043 8.24642 8 8.24642C7.46957 8.24642 6.96086 8.03516 6.58579 7.65911C6.21071 7.28306 6 6.77303 6 6.24122H2.375L3.0625 2.54413H12.9375L13.625 6.24122Z" fill="#F6C71F"/>
<path d="M10 11.7556C10 12.2874 9.78929 12.7974 9.41421 13.1734C9.03914 13.5495 8.53043 13.7608 8 13.7608C7.46957 13.7608 6.96086 13.5495 6.58579 13.1734C6.21071 12.7974 6 12.2874 6 11.7556H1V16.2673H15V11.7556H10Z" fill="#F6C71F"/>
</g>
<defs>
<clipPath id="clip0">
<rect y="0.726929" width="16" height="16.0416" fill="white"/>
</clipPath>
</defs>
</svg>
